<?xml version="1.0" encoding="utf-8"?>
<!-- Generator: Adobe Illustrator 25.1.0, SVG Export Plug-In . SVG Version: 6.00 Build 0)  -->
<svg version="1.1" id="Camada_1" xmlns="http://www.w3.org/2000/svg" xmlns:xlink="http://www.w3.org/1999/xlink" x="0px" y="0px"
	 viewBox="0 0 1080 1080" style="enable-background:new 0 0 1080 1080;" xml:space="preserve">
<style type="text/css">
	.st0{opacity:0.2;}
	.st1{fill:#DDCC61;}
</style>
<g class="st0">
	<g>
		<g>
			<g>
				<path class="st1" d="M560.6,1c141,0,255.7,113.2,255.7,252.3c0,45.6-37.6,82.6-83.7,82.6H347.8c-46.2,0-83.7-37.1-83.7-82.6
					C264.1,114.2,378.8,1,519.8,1H560.6 M560.6,0h-40.8C378.2,0,263.1,113.6,263.1,253.3c0,46.1,38,83.6,84.7,83.6h384.8
					c46.7,0,84.7-37.5,84.7-83.6C817.3,113.6,702.2,0,560.6,0L560.6,0z"/>
			</g>
			<g>
				<path class="st1" d="M557.6,46.6c120.4,0,218.4,92.7,218.4,206.6c0,37.2-32,67.5-71.4,67.5H375.8c-39.4,0-71.4-30.3-71.4-67.5
					c0-113.9,98-206.6,218.4-206.6H557.6 M557.6,45.6h-34.9c-121,0-219.4,93.1-219.4,207.6c0,37.8,32.5,68.5,72.4,68.5h328.9
					c39.9,0,72.4-30.7,72.4-68.5C777,138.8,678.6,45.6,557.6,45.6L557.6,45.6z"/>
			</g>
			<g>
				<path class="st1" d="M554.5,79.6c98.3,0,178.3,76.4,178.3,170.3c0,30.6-26.1,55.5-58.2,55.5H405.8c-32.1,0-58.2-24.9-58.2-55.5
					c0-93.9,80-170.3,178.3-170.3H554.5 M554.5,78.6h-28.5c-98.9,0-179.3,76.8-179.3,171.3c0,31.2,26.6,56.5,59.2,56.5h268.8
					c32.6,0,59.2-25.4,59.2-56.5C733.8,155.5,653.3,78.6,554.5,78.6L554.5,78.6z"/>
			</g>
			<g>
				<path class="st1" d="M551.4,111.7c77.3,0,140.2,60.7,140.2,135.3c0,24.2-20.5,44-45.6,44H434.3c-25.2,0-45.6-19.7-45.6-44
					c0-74.6,62.9-135.3,140.2-135.3H551.4 M551.4,110.7H529c-77.9,0-141.2,61.1-141.2,136.3c0,24.8,20.9,45,46.6,45H646
					c25.7,0,46.6-20.2,46.6-45C692.7,171.8,629.3,110.7,551.4,110.7L551.4,110.7z"/>
			</g>
		</g>
	</g>
	<g>
		<g>
			<g>
				<path class="st1" d="M725.2,69c33.3,0,65.8,6.4,96.7,18.9c31.9,13,60.6,32,85.2,56.6l28.9,28.9c99.7,99.7,100.8,260.9,2.4,359.3
					c-15.4,15.4-36.1,23.9-58.1,23.9c-22.5,0-43.6-8.8-59.5-24.7L548.6,259.8c-32.6-32.6-33-85.4-0.8-117.6
					c23.8-23.8,51.7-42.3,82.8-54.8C660.7,75.2,692.5,69,725.2,69 M725.2,68c-64.7,0-129.2,24.4-178.1,73.4
					c-32.6,32.6-32.2,86,0.8,119L820,532.5c16.7,16.7,38.5,25,60.2,25c21.4,0,42.6-8.1,58.8-24.2c98.8-98.8,97.7-260.6-2.4-360.7
					l-28.9-28.9C857.3,93.3,791.1,68,725.2,68L725.2,68z"/>
			</g>
			<g>
				<path class="st1" d="M719,112.5c28.6,0,56.7,5.6,83.5,16.6c27.8,11.4,52.8,28.2,74.4,49.7l24.7,24.7
					c20.8,20.8,37.2,44.9,48.6,71.6c11,25.8,17,52.8,17.7,80.5c0.8,27.6-3.7,54.4-13.3,79.6c-9.9,26.1-25,49.3-44.7,69
					c-12.2,12.2-28.8,19-46.6,19c-19.3,0-37.6-7.7-51.7-21.7L579.1,268.8c-27.8-27.8-29.1-71.9-2.7-98.3
					C613.8,133.1,664.4,112.5,719,112.5 M719,111.5c-52.6,0-104.3,19.3-143.3,58.4c-26.7,26.7-25.5,71.4,2.7,99.7l232.5,232.5
					c14.6,14.6,33.7,22,52.4,22c17.4,0,34.4-6.4,47.3-19.3c81-81,77.2-216.4-8.3-302l-24.7-24.7C833.3,133.9,775.6,111.5,719,111.5
					L719,111.5z"/>
			</g>
			<g>
				<path class="st1" d="M727.3,150.6c23.3,0,46.2,4.5,68,13.5c22.6,9.3,42.9,22.9,60.5,40.4l20.2,20.2c17,17,30.3,36.7,39.6,58.5
					c8.9,21.1,13.7,43.3,14.3,65.9c0.5,22.7-3.3,44.6-11.2,65.3c-8.3,21.4-20.7,40.5-36.9,56.7c-10.1,10.1-23.8,15.7-38.5,15.7
					c-15.7,0-30.6-6.2-41.9-17.6L611.2,279.2c-22.7-22.7-23.5-58.8-1.9-80.4C640.4,167.7,682.3,150.6,727.3,150.6 M727.3,149.6
					c-43.5,0-86.3,16.1-118.7,48.5c-22,22-21.2,58.8,1.9,81.8L800.5,470c11.9,11.9,27.4,17.9,42.6,17.9c14.4,0,28.5-5.3,39.2-16
					c66.8-66.8,64.2-178-5.7-247.9l-20.2-20.2C820.5,167.7,773.5,149.6,727.3,149.6L727.3,149.6z"/>
			</g>
			<g>
				<path class="st1" d="M734.7,187.2c18.3,0,36.3,3.5,53.4,10.5c17.7,7.2,33.6,17.8,47.3,31.5l15.9,15.9
					c54.7,54.7,56.3,142.1,3.5,194.8c-8.1,8.1-18.9,12.5-30.6,12.5c-12.3,0-23.9-4.9-32.7-13.7L641.7,289.1
					c-17.8-17.8-18.3-46.2-1.2-63.3C665.4,200.9,698.8,187.2,734.7,187.2 M734.7,186.2c-34.7,0-68.9,12.9-94.9,38.8
					c-17.5,17.5-17,46.6,1.2,64.8l149.7,149.7c9.3,9.3,21.5,14,33.4,14c11.4,0,22.8-4.3,31.3-12.8c53.1-53.1,51.5-141.2-3.5-196.2
					L836,228.5C807.8,200.4,771,186.2,734.7,186.2L734.7,186.2z"/>
			</g>
		</g>
	</g>
	<g>
		<g>
			<g>
				<path class="st1" d="M827.1,264.1c139.1,0,252.3,114.7,252.3,255.7v40.8c0,141-113.2,255.7-252.3,255.7
					c-45.6,0-82.6-37.6-82.6-83.7V347.9C744.5,301.7,781.5,264.1,827.1,264.1 M827.1,263.1c-46.1,0-83.6,38-83.6,84.7v384.8
					c0,46.7,37.5,84.7,83.6,84.7c139.7,0,253.3-115.2,253.3-256.7v-40.8C1080.4,378.3,966.8,263.1,827.1,263.1L827.1,263.1z"/>
			</g>
			<g>
				<path class="st1" d="M827.2,304.4c113.9,0,206.6,98,206.6,218.4v34.9c0,120.4-92.7,218.4-206.6,218.4c-37.2,0-67.5-32-67.5-71.4
					V375.8C759.6,336.4,789.9,304.4,827.2,304.4 M827.2,303.4c-37.8,0-68.5,32.5-68.5,72.4v328.9c0,39.9,30.7,72.4,68.5,72.4
					c114.5,0,207.6-98.4,207.6-219.4v-34.9C1034.8,401.8,941.7,303.4,827.2,303.4L827.2,303.4z"/>
			</g>
			<g>
				<path class="st1" d="M830.5,347.6c93.9,0,170.3,80,170.3,178.3v28.5c0,98.3-76.4,178.3-170.3,178.3c-30.6,0-55.5-26.1-55.5-58.2
					V405.8C775,373.7,799.9,347.6,830.5,347.6 M830.5,346.6c-31.2,0-56.5,26.6-56.5,59.2v268.8c0,32.6,25.4,59.2,56.5,59.2
					c94.5,0,171.3-80.5,171.3-179.3V526C1001.8,427.1,925,346.6,830.5,346.6L830.5,346.6z"/>
			</g>
			<g>
				<path class="st1" d="M833.5,388.8c74.6,0,135.3,62.9,135.3,140.2v22.5c0,77.3-60.7,140.2-135.3,140.2c-24.2,0-44-20.5-44-45.6
					V434.4C789.6,409.2,809.3,388.8,833.5,388.8 M833.5,387.8c-24.8,0-45,20.9-45,46.6v211.7c0,25.7,20.2,46.6,45,46.6
					c75.1,0,136.3-63.4,136.3-141.2V529C969.8,451.1,908.7,387.8,833.5,387.8L833.5,387.8z"/>
			</g>
		</g>
	</g>
	<g>
		<g>
			<g>
				<path class="st1" d="M880.2,523.9c22,0,42.7,8.5,58.1,23.9c98.4,98.4,97.3,259.5-2.4,359.3L907.1,936
					c-24.6,24.6-53.2,43.6-85.2,56.6c-30.8,12.5-63.4,18.9-96.7,18.9c-32.7,0-64.6-6.1-94.6-18.3c-31.1-12.5-59-31-82.8-54.8
					c-32.2-32.2-31.9-85,0.8-117.6l272.1-272.1C836.6,532.7,857.8,523.9,880.2,523.9 M880.2,522.9c-21.7,0-43.6,8.3-60.2,25
					L547.9,820c-33,33-33.4,86.4-0.8,119c49,49,113.4,73.4,178.1,73.4c65.9,0,132-25.3,182.5-75.8l28.9-28.9
					c100.1-100.1,101.2-261.9,2.4-360.7C922.9,531,901.6,522.9,880.2,522.9L880.2,522.9z"/>
			</g>
			<g>
				<path class="st1" d="M863.3,557.4c17.8,0,34.4,6.7,46.6,19c80.6,80.6,76.8,215.4-8.3,300.6l-24.7,24.7
					c-21.6,21.6-46.6,38.3-74.4,49.7c-26.8,11-54.9,16.6-83.5,16.6c-54.5,0-105.2-20.6-142.6-58.1c-26.3-26.3-25.1-70.4,2.7-98.3
					l232.5-232.5C825.6,565.1,844,557.4,863.3,557.4 M863.3,556.4c-18.7,0-37.7,7.4-52.4,22L578.4,811
					c-28.2,28.2-29.5,72.9-2.7,99.7c39,39,90.7,58.4,143.3,58.4c56.6,0,114.3-22.4,158.6-66.7l24.7-24.7c85.5-85.5,89.3-221,8.3-302
					C897.7,562.8,880.7,556.4,863.3,556.4L863.3,556.4z"/>
			</g>
			<g>
				<path class="st1" d="M843.2,593.6c14.7,0,28.4,5.6,38.5,15.7c66.4,66.4,63.8,177-5.7,246.5L855.8,876
					c-17.5,17.5-37.9,31.1-60.5,40.4c-21.8,9-44.7,13.5-68,13.5c-45,0-87-17.1-118-48.2c-21.7-21.7-20.8-57.7,1.9-80.4l190.1-190.1
					C812.6,599.9,827.5,593.6,843.2,593.6 M843.2,592.6c-15.3,0-30.8,6-42.6,17.9L610.5,800.6c-23.1,23.1-23.9,59.8-1.9,81.8
					c32.4,32.4,75.2,48.5,118.7,48.5c46.2,0,93.2-18.1,129.2-54.2l20.2-20.2c69.9-69.9,72.5-181.2,5.7-247.9
					C871.7,597.9,857.6,592.6,843.2,592.6L843.2,592.6z"/>
			</g>
			<g>
				<path class="st1" d="M824.1,628c11.7,0,22.5,4.4,30.6,12.5c52.7,52.7,51.2,140.1-3.5,194.8l-15.9,15.9
					c-13.7,13.7-29.6,24.3-47.3,31.5c-17.1,7-35,10.5-53.4,10.5c-35.9,0-69.3-13.7-94.2-38.5c-8.3-8.3-12.7-19.4-12.5-31.4
					c0.2-12,5.1-23.3,13.7-31.9l149.7-149.7C800.2,632.9,811.8,628,824.1,628 M824.1,627c-12,0-24.1,4.7-33.5,14L641,790.7
					c-18.2,18.2-18.7,47.2-1.2,64.8c25.9,25.9,60.2,38.8,94.9,38.8c36.4,0,73.2-14.2,101.3-42.4l15.9-15.9
					C907,781,908.5,693,855.4,639.9C846.9,631.3,835.6,627,824.1,627L824.1,627z"/>
			</g>
		</g>
	</g>
	<g>
		<g>
			<g>
				<path class="st1" d="M732.6,744.5c46.2,0,83.7,37.1,83.7,82.6c0,139.1-114.7,252.3-255.7,252.3h-40.8
					c-141,0-255.7-113.2-255.7-252.3c0-45.6,37.6-82.6,83.7-82.6H732.6 M732.6,743.5H347.8c-46.7,0-84.7,37.5-84.7,83.6
					c0,139.7,115.2,253.3,256.7,253.3h40.8c141.6,0,256.7-113.6,256.7-253.3C817.3,781,779.3,743.5,732.6,743.5L732.6,743.5z"/>
			</g>
			<g>
				<path class="st1" d="M704.6,759.7c39.4,0,71.4,30.3,71.4,67.5c0,113.9-98,206.6-218.4,206.6h-34.9
					c-120.4,0-218.4-92.7-218.4-206.6c0-37.2,32-67.5,71.4-67.5H704.6 M704.6,758.7H375.8c-39.9,0-72.4,30.7-72.4,68.5
					c0,114.5,98.4,207.6,219.4,207.6h34.9c121,0,219.4-93.1,219.4-207.6C777,789.4,744.6,758.7,704.6,758.7L704.6,758.7z"/>
			</g>
			<g>
				<path class="st1" d="M674.6,775c32.1,0,58.2,24.9,58.2,55.5c0,93.9-80,170.3-178.3,170.3h-28.5c-98.3,0-178.3-76.4-178.3-170.3
					c0-30.6,26.1-55.5,58.2-55.5H674.6 M674.6,774H405.8c-32.6,0-59.2,25.4-59.2,56.5c0,94.5,80.5,171.3,179.3,171.3h28.5
					c98.9,0,179.3-76.8,179.3-171.3C733.8,799.4,707.2,774,674.6,774L674.6,774z"/>
			</g>
			<g>
				<path class="st1" d="M646,789.6c25.2,0,45.6,19.7,45.6,44c0,74.6-62.9,135.3-140.2,135.3H529c-77.3,0-140.2-60.7-140.2-135.3
					c0-24.2,20.5-44,45.6-44H646 M646,788.6H434.3c-25.7,0-46.6,20.2-46.6,45c0,75.1,63.4,136.3,141.2,136.3h22.5
					c77.9,0,141.2-61.1,141.2-136.3C692.7,808.8,671.7,788.6,646,788.6L646,788.6z"/>
			</g>
		</g>
	</g>
	<g>
		<g>
			<g>
				<path class="st1" d="M200.2,523.9c22.5,0,43.6,8.8,59.5,24.7l272.1,272.1c32.6,32.6,33,85.4,0.8,117.6
					c-23.8,23.8-51.7,42.3-82.8,54.8c-30,12.1-61.9,18.3-94.6,18.3c-33.3,0-65.8-6.4-96.7-18.9c-31.9-13-60.6-32-85.2-56.6
					l-28.9-28.9c-24.4-24.4-43.3-52.8-56.3-84.4C75.7,792.2,69.2,760,69,727c-0.2-33,5.8-65.2,17.9-95.5
					c12.6-31.4,31.1-59.6,55.2-83.6C157.5,532.4,178.1,523.9,200.2,523.9 M200.2,522.9c-21.4,0-42.6,8.1-58.8,24.2
					c-98.8,98.8-97.7,260.6,2.4,360.7l28.9,28.9c50.5,50.5,116.7,75.8,182.5,75.8c64.7,0,129.2-24.4,178.1-73.4
					c32.6-32.6,32.2-86-0.8-119L260.4,547.9C243.7,531.3,221.9,522.9,200.2,522.9L200.2,522.9z"/>
			</g>
			<g>
				<path class="st1" d="M217.1,557.4c19.3,0,37.6,7.7,51.7,21.7l232.5,232.5c13.5,13.5,21.2,31.1,21.7,49.7
					c0.5,18.6-6.2,35.8-18.9,48.5C466.6,947.4,416,968,361.4,968c-28.6,0-56.7-5.6-83.5-16.6c-27.8-11.4-52.8-28.2-74.4-49.7
					l-24.7-24.7c-85.2-85.2-88.9-220-8.3-300.5C182.7,564.2,199.3,557.4,217.1,557.4 M217.1,556.4c-17.4,0-34.4,6.4-47.3,19.3
					c-81,81-77.2,216.4,8.3,302l24.7,24.7c44.3,44.3,102,66.7,158.6,66.7c52.6,0,104.3-19.3,143.3-58.4
					c26.7-26.7,25.5-71.4-2.7-99.7L269.5,578.4C254.8,563.8,235.8,556.4,217.1,556.4L217.1,556.4z"/>
			</g>
			<g>
				<path class="st1" d="M237.2,593.6c15.7,0,30.6,6.2,41.9,17.6l190.1,190.1c22.7,22.7,23.5,58.8,1.9,80.4
					c-31.1,31.1-73,48.2-118,48.2c-23.3,0-46.2-4.5-68-13.5c-22.6-9.3-42.9-22.9-60.5-40.4l-20.2-20.2
					c-69.5-69.5-72.1-180.1-5.7-246.5C208.8,599.2,222.5,593.6,237.2,593.6 M237.2,592.6c-14.4,0-28.5,5.3-39.2,16
					c-66.8,66.8-64.2,178,5.7,247.9l20.2,20.2c36,36,83,54.2,129.2,54.2c43.5,0,86.3-16.1,118.7-48.5c22-22,21.2-58.8-1.9-81.8
					L279.8,610.5C268,598.6,252.5,592.6,237.2,592.6L237.2,592.6z"/>
			</g>
			<g>
				<path class="st1" d="M256.3,628c12.3,0,23.9,4.9,32.7,13.7l149.7,149.7c8.6,8.6,13.5,19.9,13.7,31.9c0.2,12-4.2,23.1-12.5,31.4
					c-24.9,24.9-58.3,38.5-94.2,38.5c-18.3,0-36.3-3.5-53.4-10.5c-17.7-7.2-33.6-17.8-47.3-31.5l-15.9-15.9
					c-54.7-54.7-56.3-142.1-3.5-194.8C233.8,632.5,244.6,628,256.3,628 M256.3,627c-11.4,0-22.8,4.3-31.3,12.8
					c-53.1,53.1-51.5,141.2,3.5,196.2l15.9,15.9c28.2,28.2,65,42.4,101.4,42.4c34.7,0,68.9-12.9,94.9-38.8
					c17.5-17.5,17-46.6-1.2-64.8L289.7,641C280.4,631.7,268.3,627,256.3,627L256.3,627z"/>
			</g>
		</g>
	</g>
	<g>
		<g>
			<g>
				<path class="st1" d="M253.3,264.1c45.6,0,82.6,37.6,82.6,83.7v384.8c0,46.2-37.1,83.7-82.6,83.7
					C114.1,816.4,0.9,701.7,0.9,560.7v-40.8C0.9,378.8,114.1,264.1,253.3,264.1 M253.3,263.1C113.6,263.1-0.1,378.3-0.1,519.8v40.8
					c0,141.6,113.6,256.7,253.3,256.7c46.1,0,83.6-38,83.6-84.7V347.9C336.9,301.1,299.4,263.1,253.3,263.1L253.3,263.1z"/>
			</g>
			<g>
				<path class="st1" d="M253.2,304.4c37.2,0,67.5,32,67.5,71.4v328.9c0,39.4-30.3,71.4-67.5,71.4c-113.9,0-206.6-98-206.6-218.4
					v-34.9C46.6,402.4,139.3,304.4,253.2,304.4 M253.2,303.4c-114.5,0-207.6,98.4-207.6,219.4v34.9c0,121,93.1,219.4,207.6,219.4
					c37.8,0,68.5-32.5,68.5-72.4V375.8C321.8,335.9,291,303.4,253.2,303.4L253.2,303.4z"/>
			</g>
			<g>
				<path class="st1" d="M249.9,347.6c30.6,0,55.5,26.1,55.5,58.2v268.8c0,32.1-24.9,58.2-55.5,58.2c-93.9,0-170.3-80-170.3-178.3
					V526C79.6,427.6,156,347.6,249.9,347.6 M249.9,346.6c-94.5,0-171.3,80.5-171.3,179.3v28.5c0,98.9,76.8,179.3,171.3,179.3
					c31.2,0,56.5-26.6,56.5-59.2V405.8C306.4,373.2,281,346.6,249.9,346.6L249.9,346.6z"/>
			</g>
			<g>
				<path class="st1" d="M246.9,388.8c24.2,0,44,20.5,44,45.6v211.7c0,25.2-19.7,45.6-44,45.6c-74.6,0-135.3-62.9-135.3-140.2V529
					C111.6,451.7,172.3,388.8,246.9,388.8 M246.9,387.8c-75.1,0-136.3,63.4-136.3,141.2v22.5c0,77.9,61.1,141.2,136.3,141.2
					c24.8,0,45-20.9,45-46.6V434.4C291.8,408.7,271.7,387.8,246.9,387.8L246.9,387.8z"/>
			</g>
		</g>
	</g>
	<g>
		<g>
			<g>
				<path class="st1" d="M355.1,69c32.7,0,64.6,6.1,94.6,18.3c31.1,12.5,59,31,82.8,54.8c32.2,32.2,31.9,85-0.8,117.6L259.7,531.8
					c-15.9,15.9-37.1,24.7-59.5,24.7c-22,0-42.7-8.5-58.1-23.9c-98.4-98.4-97.3-259.5,2.4-359.3l28.9-28.9
					c24.6-24.6,53.2-43.6,85.2-56.6C289.3,75.4,321.8,69,355.1,69 M355.1,68c-65.9,0-132,25.3-182.5,75.8l-28.9,28.9
					C43.7,272.8,42.6,434.6,141.4,533.3c16.2,16.2,37.4,24.2,58.8,24.2c21.7,0,43.6-8.3,60.2-25l272.1-272.1
					c33-33,33.4-86.4,0.8-119C484.3,92.5,419.9,68,355.1,68L355.1,68z"/>
			</g>
			<g>
				<path class="st1" d="M361.4,112.5c54.5,0,105.2,20.6,142.6,58.1c26.3,26.3,25.1,70.4-2.7,98.3L268.8,501.4
					c-14,14-32.3,21.7-51.7,21.7c-17.8,0-34.4-6.7-46.6-19c-19.7-19.7-34.7-42.9-44.7-69c-9.6-25.2-14.1-52-13.3-79.6
					c0.8-27.6,6.7-54.7,17.7-80.5c11.4-26.7,27.7-50.8,48.6-71.6l24.7-24.7c21.6-21.6,46.6-38.3,74.4-49.7
					C304.7,118.1,332.8,112.5,361.4,112.5 M361.4,111.5c-56.6,0-114.3,22.4-158.6,66.7l-24.7,24.7c-85.5,85.5-89.3,221-8.3,302
					c12.9,12.9,29.9,19.3,47.3,19.3c18.7,0,37.7-7.4,52.4-22L502,269.5c28.2-28.2,29.5-72.9,2.7-99.7
					C465.7,130.8,414.1,111.5,361.4,111.5L361.4,111.5z"/>
			</g>
			<g>
				<path class="st1" d="M353.1,150.6c45,0,87,17.1,118,48.2c10.5,10.5,16,24.6,15.7,39.8c-0.3,15.2-6.6,29.6-17.6,40.6L279.1,469.3
					c-11.3,11.3-26.2,17.6-41.9,17.6c-14.7,0-28.4-5.6-38.5-15.7c-16.2-16.2-28.6-35.3-36.9-56.7c-8-20.7-11.8-42.7-11.2-65.3
					c0.5-22.7,5.3-44.8,14.3-65.9c9.3-21.8,22.6-41.5,39.6-58.5l20.2-20.2c17.5-17.5,37.9-31.1,60.5-40.4
					C306.8,155.1,329.7,150.6,353.1,150.6 M353.1,149.6c-46.2,0-93.2,18.1-129.2,54.2l-20.2,20.2c-69.9,69.9-72.5,181.2-5.7,247.9
					c10.7,10.7,24.8,16,39.2,16c15.3,0,30.8-6,42.6-17.9l190.1-190.1c23.1-23.1,23.9-59.8,1.9-81.8
					C439.4,165.7,396.6,149.6,353.1,149.6L353.1,149.6z"/>
			</g>
			<g>
				<path class="st1" d="M345.7,187.2c35.9,0,69.3,13.7,94.2,38.5c8.3,8.3,12.7,19.4,12.5,31.4c-0.2,12-5.1,23.3-13.7,31.9
					L289,438.8c-8.8,8.8-20.5,13.7-32.7,13.7c-11.7,0-22.5-4.4-30.6-12.5c-25.5-25.5-39.2-59.8-38.5-96.7
					c0.7-36.8,15.6-71.7,42-98.1l15.9-15.9c13.7-13.7,29.6-24.3,47.3-31.5C309.4,190.7,327.4,187.2,345.7,187.2 M345.7,186.2
					c-36.4,0-73.2,14.2-101.3,42.4l-15.9,15.9c-55.1,55.1-56.6,143.1-3.5,196.2c8.6,8.6,19.9,12.8,31.3,12.8c12,0,24.1-4.7,33.5-14
					l149.7-149.7c18.2-18.2,18.7-47.2,1.2-64.8C414.7,199.1,380.4,186.2,345.7,186.2L345.7,186.2z"/>
			</g>
		</g>
	</g>
</g>
</svg>
